<svg xmlns="http://www.w3.org/2000/svg" viewBox="0 0 48 48"><defs><style>.cls-1{fill:#42a5f5;}.cls-2{fill:#424242;}</style></defs><title>Growth</title><g id="Growth"><path class="cls-1" d="M44,3H4A4,4,0,0,0,0,7V35a4,4,0,0,0,4,4H6V37H4a2,2,0,0,1-2-2V11H46V35a2,2,0,0,1-2,2H42v2h2a4,4,0,0,0,4-4V7A4,4,0,0,0,44,3ZM5,8A1,1,0,0,1,5,6,1,1,0,0,1,5,8ZM9,8A1,1,0,0,1,9,6,1,1,0,0,1,9,8Zm4,0a1,1,0,0,1,0-2A1,1,0,0,1,13,8Z"/><path class="cls-2" d="M41,43H40V16a1,1,0,0,0-1-1H33a1,1,0,0,0-1,1v3H27a1,1,0,0,0-1,1v3H21a1,1,0,0,0-1,1v3H15a1,1,0,0,0-1,1v3H9a1,1,0,0,0-1,1V43H7a1,1,0,0,0,0,2H41A1,1,0,0,0,41,43ZM10,33h4V43H10Zm6-4h4V43H16Zm6-4h4V43H22Zm6-4h4V43H28Zm6,22V17h4V43Z"/><path class="cls-1" d="M21.92,14.62A1,1,0,0,0,21,14H17a1,1,0,0,0,0,2h1.59l-8.3,8.29a1,1,0,0,0,1.42,1.42L20,17.41V19a1,1,0,0,0,2,0C22,14.68,22,14.88,21.92,14.62Z"/></g></svg>