<svg width="111" height="111" viewBox="0 0 111 111" fill="none" xmlns="http://www.w3.org/2000/svg">
<path d="M101.75 48.1656L78.2273 71.6879L111 104.459V38.9152L101.75 48.1656Z" fill="#2A5BF6"/>
<path d="M104.459 111H6.53101L39.3079 78.2189L48.9594 87.8745C52.5724 91.4875 58.4263 91.4875 62.0407 87.8745L71.688 78.2272L104.459 111Z" fill="#2A5BF6"/>
<path d="M9.25046 48.1656L32.7727 71.6879L0 104.459V38.9152L9.25046 48.1656Z" fill="#2A5BF6"/>
<path d="M9.25037 0V35.0843L55.5041 81.3352L101.749 35.094V0H9.25037ZM55.4999 50.8755L37.0004 32.3745L43.5397 25.8352L55.4999 37.7941L76.7092 16.5848L83.2499 23.1255L55.4999 50.8755Z" fill="#2A5BF6"/>
</svg>
