<svg width="153" height="132" viewBox="0 0 153 132" fill="none" xmlns="http://www.w3.org/2000/svg">
<path d="M6.95176 87.2212C5.28168 88.2809 3.83873 89.6619 2.70668 91.2839C1.57463 92.9058 0.776027 94.7365 0.357231 96.6697C-0.0725846 98.6012 -0.114992 100.599 0.232463 102.547C0.579919 104.495 1.31033 106.355 2.38143 108.019C2.50006 108.204 2.65401 108.364 2.83448 108.489C3.01495 108.615 3.21841 108.704 3.43325 108.751C3.64809 108.798 3.8701 108.803 4.08659 108.764C4.30309 108.725 4.50984 108.644 4.69503 108.525C4.88023 108.407 5.04025 108.253 5.16595 108.072C5.29165 107.892 5.38057 107.688 5.42764 107.474C5.47471 107.259 5.479 107.037 5.44027 106.82C5.40154 106.604 5.32055 106.397 5.20192 106.212C4.36909 104.918 3.801 103.473 3.53051 101.958C3.26002 100.444 3.29249 98.8908 3.62606 97.389C4.29522 94.3343 6.11866 91.7212 8.75179 90.0383C8.94634 89.9247 9.11593 89.7729 9.25038 89.5921C9.38484 89.4113 9.48139 89.2052 9.53424 88.9862C9.58709 88.7672 9.59515 88.5398 9.55795 88.3175C9.52074 88.0953 9.43903 87.8829 9.31772 87.6931C9.19641 87.5032 9.038 87.3398 8.85199 87.2127C8.66598 87.0855 8.4562 86.9973 8.23525 86.9532C8.01429 86.9091 7.78671 86.9102 7.56616 86.9562C7.34561 87.0023 7.13663 87.0924 6.95176 87.2212ZM50.0688 41.21C50.8357 40.3681 51.7705 39.6964 52.813 39.2382C53.8556 38.78 54.9826 38.5456 56.1214 38.5501C58.9318 38.5501 61.5081 39.962 63.007 42.3241C63.2443 42.6986 63.6207 42.9634 64.0534 43.0604C64.486 43.1573 64.9394 43.0784 65.3139 42.8411C65.6884 42.6037 65.9532 42.2273 66.0501 41.7947C66.1471 41.362 66.0682 40.9086 65.8308 40.5341C64.7959 38.8965 63.3622 37.5483 61.6639 36.6161C59.9657 35.6839 58.0586 35.1981 56.1214 35.2043C52.8525 35.2043 49.741 36.5761 47.5829 38.9683C47.2857 39.298 47.1315 39.7322 47.1544 40.1755C47.1773 40.6188 47.3754 41.0348 47.705 41.3321C48.0347 41.6294 48.4689 41.7835 48.9122 41.7606C49.3555 41.7377 49.7716 41.5396 50.0688 41.21ZM37.288 59.5449L39.7973 55.9314C40.0502 55.5667 40.1479 55.1165 40.0688 54.6798C39.9897 54.2431 39.7404 53.8557 39.3757 53.6028C39.011 53.3499 38.5608 53.2522 38.1241 53.3313C37.6874 53.4103 37.3 53.6596 37.0471 54.0243L34.5377 57.6378C34.2848 58.0025 34.1872 58.4527 34.2662 58.8894C34.3453 59.3261 34.5946 59.7135 34.9593 59.9664C35.324 60.2193 35.7742 60.317 36.2109 60.2379C36.6476 60.1589 37.0351 59.9096 37.288 59.5449ZM30.8641 68.8461L33.3734 65.2327C33.4986 65.0521 33.587 64.8486 33.6336 64.6339C33.6802 64.4191 33.684 64.1973 33.6449 63.9811C33.6057 63.7648 33.5244 63.5584 33.4055 63.3736C33.2866 63.1888 33.1324 63.0293 32.9518 62.904C32.7712 62.7788 32.5678 62.6904 32.353 62.6438C32.1382 62.5972 31.9164 62.5934 31.7002 62.6325C31.4839 62.6717 31.2775 62.753 31.0927 62.8719C30.9079 62.9909 30.7484 63.145 30.6232 63.3256L28.1138 66.939C27.8609 67.3037 27.7633 67.754 27.8423 68.1907C27.9214 68.6274 28.1707 69.0148 28.5354 69.2677C28.9001 69.5206 29.3503 69.6183 29.787 69.5392C30.2237 69.4601 30.6112 69.2108 30.8641 68.8461ZM43.7152 50.2704L46.2245 46.6235C46.4621 46.2577 46.5474 45.8135 46.4623 45.3857C46.3772 44.9579 46.1283 44.5803 45.7688 44.3333C45.4092 44.0864 44.9674 43.9896 44.5376 44.0636C44.1077 44.1377 43.7238 44.3767 43.4676 44.7297L40.9583 48.3767C40.7207 48.7425 40.6354 49.1866 40.7205 49.6144C40.8056 50.0422 41.0545 50.4198 41.414 50.6668C41.7736 50.9138 42.2154 51.0105 42.6452 50.9365C43.0751 50.8624 43.459 50.6234 43.7152 50.2704ZM44.0464 109.323L41.0587 109.845L32.8347 115.105L41.5404 128.719C42.312 129.926 43.5299 130.778 44.9279 131.09C46.326 131.401 47.7905 131.147 49.0015 130.382L50.4971 129.421C53.0031 127.816 53.7492 124.463 52.1365 121.964L44.0464 109.323ZM25.1562 87.4855L12.3585 95.6726C11.2388 96.3912 10.4497 97.5246 10.1643 98.8241C9.8789 100.124 10.1205 101.483 10.8362 102.605L18.3977 114.416C19.8866 116.748 22.9948 117.427 25.3234 115.941L38.1177 107.737L25.1562 87.4855ZM57.3827 45.9275C57.2502 45.7176 57.0671 45.5441 56.8503 45.4232C56.6334 45.3022 56.3897 45.2375 56.1414 45.235C55.8953 45.2432 55.6541 45.3056 55.4349 45.4178C55.2157 45.53 55.0239 45.6892 54.8734 45.884L27.6722 85.2104L41.2393 106.403L44.5583 105.824C44.5751 105.824 44.5918 105.834 44.6085 105.83L88.3613 98.202C88.6059 98.1608 88.8364 98.059 89.0316 97.9059C89.2268 97.7528 89.3805 97.5532 89.4788 97.3254C89.581 97.0989 89.6248 96.8503 89.6061 96.6025C89.5874 96.3546 89.5068 96.1154 89.3717 95.9068C88.8732 95.1339 58.8047 48.1826 57.3827 45.9275ZM70.7658 60.6322L81.6162 77.5887C83.4123 75.9744 84.5766 73.7746 84.9014 71.3816C85.2262 68.9886 84.6903 66.558 83.3895 64.5234H83.3861C82.0826 62.4869 80.0994 60.9784 77.7888 60.266C75.4782 59.5535 72.9898 59.6833 70.7658 60.6322ZM77.9225 18.3483C77.3152 17.1238 76.9949 15.777 76.9856 14.4103C76.9856 9.45852 80.9437 5.43689 85.8051 5.43689C90.6665 5.43689 94.6179 9.46187 94.6179 14.4103C94.6179 15.8322 94.2633 17.1572 93.6844 18.355C94.0157 18.6159 94.3436 18.8869 94.6882 19.2081C96.3276 20.8777 97.4083 22.8952 97.957 25.0632C100.122 22.3467 101.309 18.9811 101.33 15.5077C101.322 11.3935 99.6836 7.45013 96.7725 4.54283C93.8615 1.63554 89.916 0.00176611 85.8018 0C81.6893 0.003541 77.7463 1.63831 74.8377 4.54561C71.9292 7.4529 70.2927 11.3953 70.2874 15.5077C70.2874 18.9873 71.5086 22.3197 73.6198 25.0231C74.283 22.3864 75.7949 20.041 77.9225 18.3483Z" fill="#2A5BF6"/>
<path d="M95.0327 27.9103C95.003 26.5986 94.693 25.3086 94.1234 24.1267C93.5538 22.9448 92.7379 21.8985 91.7304 21.0581C90.4858 22.2191 88.1739 23.3901 85.8051 23.3901C83.4563 23.3901 81.1678 22.2526 79.8897 21.0615C78.8782 21.8968 78.0587 22.9404 77.4871 24.1211C76.9154 25.3019 76.6052 26.592 76.5774 27.9036C78.1834 29.0947 79.9566 29.8776 81.7801 30.3594L76.012 56.5368C77.1161 56.6371 78.2202 56.8713 79.2574 57.2394L85.069 30.8546C88.6389 31.0118 92.1988 30.0014 95.0327 27.9103Z" fill="#2A5BF6"/>
<path d="M91.272 14.4103C91.272 11.3088 88.8196 8.78271 85.805 8.78271C82.7905 8.78271 80.3347 11.3088 80.3347 14.4103C80.3347 21.7242 91.2754 21.6606 91.2754 14.4103H91.272ZM142.021 32.7954C142.021 29.6872 139.565 27.1611 136.55 27.1611C133.536 27.1611 131.08 29.6872 131.08 32.7954C131.08 34.6021 131.997 36.2449 133.104 37.1282L133.128 37.1516C136.587 39.8751 142.021 37.6267 142.021 32.7954ZM136.55 41.7721C134.232 41.7721 131.933 40.6513 130.638 39.4468C129.632 40.2854 128.815 41.3292 128.244 42.5086C127.673 43.6879 127.36 44.9756 127.326 46.2856C132.8 50.3474 140.432 50.2503 145.778 46.2889C145.754 44.9762 145.445 43.6844 144.873 42.5026C144.302 41.3208 143.48 40.277 142.466 39.4435C141.114 40.6814 138.879 41.7721 136.55 41.7721Z" fill="#2A5BF6"/>
<path d="M136.547 18.3818C132.434 18.3854 128.491 20.0206 125.582 22.9286C122.673 25.8366 121.037 29.7799 121.033 33.8929C121.033 35.3148 121.287 36.6966 121.669 38.035L85.2129 61.355C85.5809 61.79 85.9155 62.2584 86.2166 62.7268C86.5177 63.1952 86.7854 63.6636 86.9862 64.1655L122.92 41.18C123.341 41.9629 123.823 42.7124 124.375 43.415C125.045 40.782 126.553 38.4382 128.671 36.7368C128.063 35.5113 127.743 34.1634 127.734 32.7955C127.734 27.8437 131.689 23.8154 136.551 23.8154C141.412 23.8154 145.367 27.8437 145.367 32.7955C145.367 34.2141 145.012 35.539 144.43 36.7368C146.566 38.4312 148.072 40.7934 148.706 43.4451C150.868 40.7288 152.055 37.3646 152.075 33.8929C152.069 29.7787 150.431 25.835 147.52 22.927C144.61 20.0191 140.661 18.3845 136.547 18.3818ZM129.491 89.4128C127.149 89.4128 124.857 88.2852 123.579 87.0941C122.573 87.9325 121.758 88.9754 121.187 90.1534C120.616 91.3314 120.302 92.6176 120.267 93.9262C125.854 98.0683 133.479 97.8073 138.722 93.9329C138.694 92.6209 138.384 91.3304 137.812 90.1491C137.241 88.9678 136.421 87.9236 135.41 87.0874C134.098 88.2919 131.816 89.4128 129.491 89.4128Z" fill="#2A5BF6"/>
<path d="M134.958 80.436C134.958 77.3311 132.509 74.8051 129.491 74.8051C126.473 74.8051 124.021 77.3311 124.021 80.436C124.021 87.6629 134.958 87.7566 134.958 80.436Z" fill="#2A5BF6"/>
<path d="M129.488 66.0225C122.495 66.0225 116.643 70.6965 114.709 77.0635L88.291 71.2921C88.1906 72.3962 87.9564 73.5003 87.5549 74.5375L114.094 80.3591C114.064 80.7539 113.977 81.132 113.977 81.5335C113.977 85.0131 115.201 88.3489 117.316 91.0556C117.988 88.4246 119.497 86.0833 121.615 84.3841C121.006 83.1566 120.686 81.8063 120.678 80.4361C120.678 75.4843 124.633 71.4594 129.491 71.4594C134.349 71.4594 138.307 75.4877 138.307 80.4361C138.307 81.858 137.949 83.183 137.37 84.3808C137.698 84.6451 138.023 84.9228 138.374 85.2574C140.013 86.8968 141.097 88.9043 141.646 91.0857C143.808 88.3691 144.994 85.0052 145.015 81.5335C145.008 77.419 143.37 73.4753 140.459 70.5675C137.548 67.6596 133.602 66.0251 129.488 66.0225Z" fill="#2A5BF6"/>
</svg>
