<svg width="23" height="24" viewBox="0 0 23 24" fill="none" xmlns="http://www.w3.org/2000/svg">
<path d="M11.5 13.0325C12.9811 13.0325 14.1818 11.8318 14.1818 10.3507C14.1818 8.86952 12.9811 7.66882 11.5 7.66882C10.0189 7.66882 8.81818 8.86952 8.81818 10.3507C8.81818 11.8318 10.0189 13.0325 11.5 13.0325Z" fill="#2A5BF6"/>
<path d="M20.6948 9.20129C20.2206 9.20262 19.7583 9.35061 19.3715 9.62497C18.9847 9.89933 18.6921 10.2866 18.534 10.7338H17.5763C17.4068 9.38379 16.7931 8.12855 15.8317 7.16579C14.8703 6.20303 13.616 5.58747 12.2662 5.41609V4.46595C12.7775 4.2852 13.2084 3.92953 13.4827 3.46181C13.7571 2.9941 13.8573 2.44444 13.7656 1.90999C13.6739 1.37555 13.3962 0.890722 12.9816 0.541209C12.5671 0.191697 12.0423 0 11.5 0C10.9577 0 10.4329 0.191697 10.0184 0.541209C9.60378 0.890722 9.32609 1.37555 9.2344 1.90999C9.1427 2.44444 9.24289 2.9941 9.51726 3.46181C9.79164 3.92953 10.2225 4.2852 10.7338 4.46595V5.41609C9.38403 5.58747 8.12968 6.20303 7.16831 7.16579C6.20694 8.12855 5.59318 9.38379 5.42375 10.7338H4.46595C4.2852 10.2225 3.92953 9.79164 3.46181 9.51726C2.9941 9.24289 2.44444 9.1427 1.90999 9.2344C1.37555 9.32609 0.890722 9.60378 0.541209 10.0184C0.191697 10.4329 0 10.9577 0 11.5C0 12.0423 0.191697 12.5671 0.541209 12.9816C0.890722 13.3962 1.37555 13.6739 1.90999 13.7656C2.44444 13.8573 2.9941 13.7571 3.46181 13.4827C3.92953 13.2084 4.2852 12.7775 4.46595 12.2662H5.42375C5.50635 12.9325 5.70063 13.5801 5.99842 14.1818C6.39375 13.3718 6.96433 12.6599 7.66882 12.0977C7.41528 11.5502 7.28451 10.954 7.2857 10.3506C7.28837 9.36644 7.63418 8.41398 8.26356 7.65732C8.89295 6.90065 9.76651 6.38717 10.7338 6.20531C11.2403 6.11148 11.7597 6.11148 12.2662 6.20531C13.2335 6.38717 14.1071 6.90065 14.7364 7.65732C15.3658 8.41398 15.7116 9.36644 15.7143 10.3506C15.7155 10.954 15.5847 11.5502 15.3312 12.0977C16.0357 12.6599 16.6062 13.3718 17.0016 14.1818C17.2994 13.5801 17.4936 12.9325 17.5763 12.2662H18.534C18.6746 12.6638 18.9218 13.0151 19.2487 13.2816C19.5755 13.548 19.9693 13.7195 20.3871 13.7771C20.8048 13.8348 21.2304 13.7764 21.6172 13.6084C22.0039 13.4403 22.3371 13.1692 22.58 12.8245C22.823 12.4799 22.9665 12.075 22.9948 11.6542C23.0231 11.2335 22.9351 10.8131 22.7405 10.439C22.5458 10.0649 22.252 9.75154 21.8912 9.53325C21.5304 9.31495 21.1165 9.20011 20.6948 9.20129Z" fill="#2A5BF6"/>
<path d="M19.3002 19.0705C18.9639 18.7358 18.5321 18.5134 18.0643 18.4338C17.5965 18.3542 17.1155 18.4214 16.6874 18.6261L14.7411 16.6798C15.183 16.4095 15.5874 16.0823 15.9441 15.7067C15.7035 14.7879 15.1842 13.9661 14.4576 13.3544C13.6682 14.1293 12.6062 14.5635 11.5 14.5635C10.3937 14.5635 9.3317 14.1293 8.54229 13.3544C7.81569 13.9661 7.29639 14.7879 7.05579 15.7067C7.42012 16.0899 7.83215 16.4246 8.28177 16.7028L6.35085 18.6337C5.92256 18.4384 5.44566 18.3756 4.98142 18.4535C4.51718 18.5313 4.08682 18.7462 3.74565 19.0705C3.44608 19.3674 3.23397 19.741 3.13256 20.1504C3.03115 20.5598 3.04433 20.9893 3.17067 21.3917C3.29701 21.7941 3.53163 22.154 3.84885 22.432C4.16607 22.71 4.55366 22.8953 4.96918 22.9677C5.3847 23.0401 5.81213 22.9968 6.20468 22.8425C6.59724 22.6883 6.93977 22.4289 7.19479 22.093C7.44981 21.757 7.60748 21.3574 7.65053 20.9378C7.69359 20.5182 7.62038 20.0949 7.43891 19.7141L9.77593 17.4154C10.9121 17.7628 12.1261 17.7628 13.2623 17.4154L15.607 19.7678C15.4255 20.1485 15.3523 20.5719 15.3954 20.9914C15.4384 21.411 15.5961 21.8107 15.8511 22.1466C16.1061 22.4826 16.4487 22.7419 16.8412 22.8962C17.2338 23.0505 17.6612 23.0938 18.0767 23.0214C18.4922 22.9489 18.8798 22.7636 19.197 22.4856C19.5143 22.2076 19.7489 21.8477 19.8752 21.4453C20.0016 21.0429 20.0147 20.6135 19.9133 20.2041C19.8119 19.7947 19.5998 19.421 19.3002 19.1241V19.0705Z" fill="#2A5BF6"/>
</svg>
