<svg width="17" height="22" viewBox="0 0 17 22" fill="none" xmlns="http://www.w3.org/2000/svg">
<path d="M16.8878 6.00417C16.8347 5.87812 16.7698 5.75781 16.6812 5.65469L11.7347 0.401042C11.6226 0.280729 11.4868 0.194792 11.3392 0.120312C11.1681 0.0343749 10.9792 0 10.7785 0H1.33993C0.607986 0 0 0.607292 0 1.36927V20.5734C0 21.3411 0.607986 22 1.33993 22H15.6896C16.4215 22 17 21.3411 17 20.5734V6.58854C17 6.38229 16.9705 6.18177 16.8878 6.00417ZM2.83333 6.54271C2.83333 6.45677 2.93958 6.4224 3.03403 6.4224H7.21319C7.30764 6.4224 7.37847 6.45677 7.37847 6.54271V7.16146C7.37847 7.24167 7.31354 7.33906 7.21319 7.33906H3.03403C2.93958 7.33906 2.83333 7.24167 2.83333 7.16146V6.54271ZM2.83333 13.876C2.83333 13.7901 2.93958 13.7557 3.03403 13.7557H10.2472C10.3417 13.7557 10.3889 13.7901 10.3889 13.876V14.4948C10.3889 14.575 10.3476 14.6724 10.2472 14.6724H3.03403C2.93958 14.6724 2.83333 14.575 2.83333 14.4948V13.876ZM12.2778 18.1615C12.2778 18.2417 12.2365 18.3391 12.1361 18.3391H3.03403C2.93958 18.3391 2.83333 18.2417 2.83333 18.1615V17.5427C2.83333 17.4568 2.93958 17.4224 3.03403 17.4224H12.1361C12.2306 17.4224 12.2778 17.4568 12.2778 17.5427V18.1615ZM14.1667 10.8281C14.1667 10.9083 14.1253 11.0057 14.025 11.0057H3.03403C2.93958 11.0057 2.83333 10.9083 2.83333 10.8281V10.2094C2.83333 10.1234 2.93958 10.0891 3.03403 10.0891H14.025C14.1194 10.0891 14.1667 10.1234 14.1667 10.2094V10.8281ZM11.3983 6.47969C11.0677 6.47969 10.7431 6.18177 10.7431 5.83229V2.05104L14.9458 6.47969H11.3983Z" fill="#2A5BF6"/>
</svg>
