<svg width="120" height="118" viewBox="0 0 120 118" fill="none" xmlns="http://www.w3.org/2000/svg">
<path fill-rule="evenodd" clip-rule="evenodd" d="M85.3647 40.9797V2.80952C85.3647 1.25867 84.0899 0 82.5192 0C66.169 0 19.1957 0 2.84549 0C1.27478 0 0 1.25867 0 2.80952V115.19C0 116.741 1.27478 118 2.84549 118C19.1957 118 66.169 118 82.5192 118C84.0899 118 85.3647 116.741 85.3647 115.19V71.4012L57.0264 99.3813C56.0903 100.308 54.9464 101.005 53.6887 101.418C49.7278 102.722 37.8906 106.619 37.8906 106.619C36.869 106.953 35.7422 106.692 34.9796 105.939C34.217 105.186 33.9524 104.073 34.291 103.065C34.291 103.065 38.2377 91.377 39.558 87.4661C39.9763 86.2243 40.682 85.0949 41.621 84.1705L85.3647 40.9797ZM14.2274 106.762H25.6094C27.1801 106.762 28.4549 105.503 28.4549 103.952C28.4549 102.402 27.1801 101.143 25.6094 101.143H14.2274C12.6567 101.143 11.382 102.402 11.382 103.952C11.382 105.503 12.6567 106.762 14.2274 106.762ZM41.4901 99.5105L48.7973 97.1056L43.9259 92.2957L41.4901 99.5105ZM46.7059 87.0952L54.0643 94.3607L101.26 47.7619L93.9012 40.4965L46.7059 87.0952ZM109.796 39.3333L105.283 43.7892L97.9247 36.5238L111.808 22.8161C112.34 22.2908 113.066 21.993 113.82 21.993C114.574 21.993 115.299 22.2908 115.831 22.8161L119.166 26.1089C119.698 26.6343 120 27.3507 120 28.0952C120 28.8398 119.698 29.5562 119.166 30.0816L113.82 35.3607L114.653 36.1839C116.252 37.7628 117.155 39.9065 117.155 42.1429C117.155 44.3792 116.252 46.5229 114.653 48.1019L96.7467 65.7822V70.2381C96.7467 71.789 95.4719 73.0476 93.9012 73.0476C92.3305 73.0476 91.0557 71.789 91.0557 70.2381V64.619C91.0557 63.8745 91.3545 63.1581 91.8894 62.6327L110.63 44.1292C111.162 43.6038 111.464 42.8874 111.464 42.1429C111.464 41.3983 111.162 40.6819 110.63 40.1565L109.796 39.3333ZM14.2274 73.0476H42.6824C44.2531 73.0476 45.5278 71.789 45.5278 70.2381C45.5278 68.6872 44.2531 67.4286 42.6824 67.4286H14.2274C12.6567 67.4286 11.382 68.6872 11.382 70.2381C11.382 71.789 12.6567 73.0476 14.2274 73.0476ZM14.2274 61.8095H54.0643C55.635 61.8095 56.9098 60.5509 56.9098 59C56.9098 57.4491 55.635 56.1905 54.0643 56.1905H14.2274C12.6567 56.1905 11.382 57.4491 11.382 59C11.382 60.5509 12.6567 61.8095 14.2274 61.8095ZM14.2274 50.5714H65.4463C67.017 50.5714 68.2918 49.3128 68.2918 47.7619C68.2918 46.211 67.017 44.9524 65.4463 44.9524H14.2274C12.6567 44.9524 11.382 46.211 11.382 47.7619C11.382 49.3128 12.6567 50.5714 14.2274 50.5714ZM14.2274 39.3333H71.1373C72.708 39.3333 73.9827 38.0747 73.9827 36.5238C73.9827 34.973 72.708 33.7143 71.1373 33.7143H14.2274C12.6567 33.7143 11.382 34.973 11.382 36.5238C11.382 38.0747 12.6567 39.3333 14.2274 39.3333ZM14.2274 28.0952H71.1373C72.708 28.0952 73.9827 26.8366 73.9827 25.2857C73.9827 23.7349 72.708 22.4762 71.1373 22.4762H14.2274C12.6567 22.4762 11.382 23.7349 11.382 25.2857C11.382 26.8366 12.6567 28.0952 14.2274 28.0952ZM42.6824 16.8571H71.1373C72.708 16.8571 73.9827 15.5985 73.9827 14.0476C73.9827 12.4968 72.708 11.2381 71.1373 11.2381H42.6824C41.1116 11.2381 39.8369 12.4968 39.8369 14.0476C39.8369 15.5985 41.1116 16.8571 42.6824 16.8571Z" fill="#2A5BF6"/>
</svg>
