<svg width="22" height="22" viewBox="0 0 22 22" fill="none" xmlns="http://www.w3.org/2000/svg">
<path d="M21.6783 20.1249L15.6902 14.1368C17.0566 12.3754 17.7004 10.1595 17.4907 7.94007C17.2809 5.72067 16.2333 3.6646 14.5611 2.19032C12.8889 0.716033 10.7178 -0.0656627 8.48961 0.0043245C6.26141 0.0743117 4.14361 0.990722 2.56723 2.56704C0.990859 4.14336 0.0743829 6.26113 0.00433232 8.48931C-0.0657183 10.7175 0.715921 12.8886 2.19017 14.5609C3.66441 16.2331 5.72047 17.2807 7.93987 17.4905C10.1593 17.7003 12.3752 17.0566 14.1367 15.6902L20.1248 21.6783C20.2268 21.7803 20.3479 21.8612 20.4812 21.9164C20.6144 21.9716 20.7573 22 20.9015 22C21.0458 22 21.1886 21.9716 21.3219 21.9164C21.4551 21.8612 21.5762 21.7803 21.6782 21.6783C21.7802 21.5763 21.8612 21.4552 21.9164 21.3219C21.9716 21.1887 22 21.0458 22 20.9016C22 20.7573 21.9716 20.6145 21.9164 20.4812C21.8612 20.3479 21.7803 20.2269 21.6783 20.1249ZM8.77935 15.3323C7.48325 15.3323 6.21625 14.948 5.13857 14.2279C4.06089 13.5079 3.22094 12.4844 2.72493 11.287C2.22893 10.0896 2.09914 8.77193 2.352 7.50074C2.60485 6.22954 3.22899 5.06188 4.14547 4.1454C5.06196 3.22892 6.22963 2.6048 7.50083 2.35195C8.77203 2.0991 10.0897 2.22888 11.2871 2.72488C12.4845 3.22089 13.508 4.06083 14.2281 5.13851C14.9481 6.21618 15.3325 7.48318 15.3324 8.77927C15.3304 10.5166 14.6393 12.1822 13.4108 13.4107C12.1823 14.6392 10.5167 15.3303 8.77935 15.3323Z" fill="#2A5BF6"/>
</svg>
