<svg width="131" height="131" viewBox="0 0 131 131" fill="none" xmlns="http://www.w3.org/2000/svg">
<path d="M86.5997 0C62.058 0 42.1739 19.8803 42.1739 44.4172C42.1739 55.6494 46.3708 65.8582 53.2291 73.6875L45.8334 81.0818C42.6345 79.5723 38.6935 80.0584 36.0576 82.7193L31.7839 86.9922L35.8529 91.0603L39.9219 95.1285L43.9908 99.1967L48.2645 94.9238C50.926 92.2629 51.4122 88.3482 49.9023 85.15L57.2981 77.7557C65.1289 84.6127 75.3397 88.8088 86.5741 88.8088C111.116 88.8088 131 68.9285 131 44.3916C131.026 19.8803 111.141 0 86.5997 0ZM86.5997 80.1607C77.7708 80.1607 69.7097 76.9369 63.4655 71.615C62.0068 70.3613 60.6249 69.0053 59.3966 67.5469C56.6583 64.323 54.4831 60.5875 52.9988 56.5193H59.6525C60.5481 56.5193 61.4182 56.0844 61.9557 55.368L78.4618 33.5687L81.5327 45.415L83.2217 51.8883L86.5485 64.7324C86.83 65.7814 87.6745 66.6002 88.7494 66.8305C88.9541 66.8816 89.1588 66.8816 89.3379 66.8816C90.208 66.8816 91.0525 66.4979 91.5899 65.7814L98.9601 56.4938H120.226C115.236 70.2846 102.082 80.1607 86.5997 80.1607ZM121.787 50.7625H97.5526C96.6825 50.7625 95.838 51.1719 95.3006 51.8627L90.6687 57.6963L87.956 47.1805L86.2414 40.6816L82.5308 26.3535C82.2493 25.2789 81.3792 24.4602 80.3043 24.2555C79.2295 24.0252 78.1035 24.4602 77.4382 25.3301L58.1938 50.7369H51.4378C51.0539 48.6645 50.8492 46.5664 50.8492 44.3916C50.8492 24.6648 66.8947 8.62246 86.6253 8.62246C106.356 8.62246 122.376 24.6648 122.376 44.3916C122.376 46.5664 122.146 48.69 121.787 50.7625ZM2.5335 128.467C4.2225 130.156 6.44891 131 8.64973 131C10.8761 131 13.077 130.156 14.766 128.467L37.9258 105.312L33.8568 101.244L29.7878 97.1754L25.7189 93.1072L2.5335 116.237C-0.844501 119.614 -0.844501 125.09 2.5335 128.467Z" fill="#2A5BF6"/>
</svg>
