<svg width="24" height="23" viewBox="0 0 24 23" fill="none" xmlns="http://www.w3.org/2000/svg">
<path d="M23.9392 8.69026C23.8625 8.45245 23.7175 8.24248 23.5222 8.08652C23.327 7.93057 23.0901 7.83554 22.8412 7.81326L15.9142 7.18426L13.1752 0.773258C13.0768 0.54367 12.9132 0.348019 12.7046 0.210563C12.496 0.0731073 12.2517 -0.00010636 12.0019 1.15973e-07C11.7521 0.000106592 11.5078 0.0735285 11.2994 0.211162C11.0909 0.348795 10.9275 0.544587 10.8292 0.774258L8.09023 7.18426L1.16223 7.81326C0.913107 7.83538 0.675992 7.93028 0.4804 8.08615C0.284808 8.24201 0.139376 8.45196 0.0622082 8.68986C-0.0149599 8.92776 -0.0204563 9.18311 0.046403 9.4241C0.113262 9.6651 0.249525 9.88112 0.438228 10.0453L5.67423 14.6373L4.13023 21.4383C4.07471 21.6817 4.09191 21.9361 4.17969 22.1699C4.26746 22.4037 4.42195 22.6065 4.62398 22.7533C4.82601 22.9 5.06669 22.9842 5.31615 22.9954C5.56561 23.0066 5.81286 22.9443 6.02723 22.8163L12.0022 19.2453L17.9752 22.8163C18.1897 22.9441 18.4369 23.0063 18.6863 22.995C18.9358 22.9838 19.1764 22.8996 19.3785 22.7529C19.5805 22.6062 19.7351 22.4035 19.823 22.1698C19.911 21.9361 19.9284 21.6818 19.8732 21.4383L18.3292 14.6373L23.5652 10.0463C23.9502 9.70926 24.0972 9.17726 23.9392 8.69026Z" fill="#FFC107"/>
</svg>
